# xmcd
#
# Track frame offsets:
#	150
#	14084
#	29466
#	45505
#	60526
#	72543
#	91015
#	102737
#	118029
#	139291
#	154228
#	167004
#	190024
#	203147
#	221513
#	237812
#
# Disc length: 3503 seconds
#
# Revision: 1
# Processed by: cddbd v1.5.1PL0 Copyright (c) Steve Scherf et al.
# Submitted via: EasyCDDAExtractor 7.0.4.1
#
DISCID=e50dad10
DTITLE=Die Campbells - Daar's Iets Innie Water CD1
DYEAR=2004
DGENRE=Pop
TTITLE0=Honderd Jaar
TTITLE1=Daar's Ietes Innie Water
TTITLE2=I Want To Break Free
TTITLE3=Bietjie Bietjie Lam
TTITLE4=Baby Laail Jy My
TTITLE5=Just For You
TTITLE6=Oh Julie
TTITLE7=Ama Bokke Bokke
TTITLE8=Lekker Somer Medly
TTITLE9=My Kombi Panel Van 04
TTITLE10=Wag 'n Bietjie
TTITLE11=Tribute to Joe Dolan
TTITLE12=Pretty Woman
TTITLE13=Summer Of 69
TTITLE14=Baby Jy Is Myne
TTITLE15=Ruk n Rol Treffers
EXTD=
EXTT0=
EXTT1=
EXTT2=
EXTT3=
EXTT4=
EXTT5=
EXTT6=
EXTT7=
EXTT8=Hooray Hooray It's a Holiday - We're Going To Ibiza - Brown Girl In The Ri
EXTT8=ng
EXTT9=
EXTT10=
EXTT11=It's You, It's You, It's You - More and More
EXTT12=
EXTT13=
EXTT14=
EXTT15=Some Girls - Great Balls Of Fire - Johnny B Goode - Greased Lightning - Let
EXTT15='s Go - Tutti Frutti
PLAYORDER=
